<svg width="40" height="40" viewBox="0 0 40 40" fill="none" xmlns="http://www.w3.org/2000/svg">
<g clip-path="url(#clip0_30_744)">
<path d="M30 19.0769C30.3077 19.5385 30.6154 20 30.7692 20.7692H25.8462C25.8462 20.6154 25.8462 20.3077 26 20C26.1538 19.6923 26.1538 19.5385 26.4615 19.2308C26.6154 18.9231 26.9231 18.7692 27.2308 18.6154C27.5385 18.4615 28 18.3077 28.4615 18.3077C29.0769 18.4615 29.6923 18.6154 30 19.0769V19.0769ZM15.8462 18C16.1538 17.6923 16.4615 17.2308 16.4615 16.6154C16.4615 16.3077 16.4615 16 16.3077 15.6923C16.1538 15.5385 16 15.2308 15.8462 15.2308C15.6923 15.0769 15.3846 15.0769 15.0769 14.9231H11.0769V18.4615H14.4615C14.9231 18.4615 15.3846 18.3077 15.8462 18V18ZM14.6154 20.6154H11.0769V24.7692H14.6154C14.9231 24.7692 15.2308 24.7692 15.5385 24.6154C15.8462 24.6154 16.1538 24.4615 16.3077 24.3077C16.4615 24.1538 16.7692 24 16.9231 23.6923C17.0769 23.3846 17.0769 23.0769 17.0769 22.7692C17.0769 22 16.9231 21.3846 16.4615 21.0769C16 20.7692 15.3846 20.6154 14.6154 20.6154ZM40 7.53846V32.4615C40 36.6154 36.6154 40 32.4615 40H7.53846C3.38462 40 0 36.6154 0 32.4615V7.53846C0 3.38462 3.38462 0 7.53846 0H32.4615C36.6154 0 40 3.38462 40 7.53846ZM25.2308 14.7692H31.3846V13.2308H25.2308V14.7692ZM20.3077 23.0769C20.3077 22.1538 20.1538 21.3846 19.6923 20.6154C19.2308 20 18.6154 19.5385 17.6923 19.2308C18.3077 18.9231 18.9231 18.4615 19.2308 18C19.5385 17.5385 19.6923 16.9231 19.6923 16.1538C19.6923 15.3846 19.5385 14.9231 19.3846 14.3077C19.0769 13.8462 18.7692 13.3846 18.4615 13.2308C18 12.9231 17.5385 12.7692 16.9231 12.6154C16.1538 12.3077 15.5385 12.3077 14.7692 12.3077H7.69231V27.3846H15.0769C15.6923 27.3846 16.4615 27.2308 17.0769 27.0769C17.6923 26.9231 18.3077 26.6154 18.7692 26.3077C19.2308 26 19.6923 25.5385 20 24.9231C20.1538 24.4615 20.3077 23.8462 20.3077 23.0769V23.0769ZM25.8462 22.6154H33.6923C33.6923 21.6923 33.6923 20.9231 33.5385 20.1538C33.3846 19.3846 33.0769 18.6154 32.6154 18.1538C32.1538 17.5385 31.5385 17.0769 30.9231 16.7692C30.1538 16.4615 29.3846 16.1538 28.4615 16.1538C27.6923 16.1538 26.9231 16.3077 26.1538 16.6154C25.5385 16.9231 24.9231 17.3846 24.3077 17.8462C23.8462 18.3077 23.3846 18.9231 23.2308 19.6923C22.9231 20.4615 22.7692 21.2308 22.7692 22C22.7692 22.7692 22.9231 23.6923 23.2308 24.3077C23.5385 25.0769 23.8462 25.6923 24.3077 26.1538C24.7692 26.6154 25.3846 27.0769 26 27.3846C26.7692 27.6923 27.5385 27.8462 28.3077 27.8462C29.5385 27.8462 30.6154 27.5385 31.5385 26.9231C32.4615 26.3077 33.0769 25.3846 33.5385 24.1538H30.9231C30.7692 24.4615 30.6154 24.7692 30.1538 25.0769C29.6923 25.3846 29.2308 25.5385 28.6154 25.5385C27.8462 25.5385 27.0769 25.3846 26.6154 24.9231C26.1538 24.3077 25.8462 23.5385 25.8462 22.6154V22.6154Z" fill="#F2F2F2"/>
</g>
<defs>
<clipPath id="clip0_30_744">
<rect width="40" height="40" fill="white"/>
</clipPath>
</defs>
</svg>
