<svg width="40" height="40" viewBox="0 0 40 40" fill="none" xmlns="http://www.w3.org/2000/svg">
<path d="M13.5156 27.9167C13.5851 27.8125 13.559 27.6997 13.4375 27.5781C13.2812 27.4566 13.1597 27.4392 13.0729 27.526C13.0035 27.6302 13.0295 27.7431 13.151 27.8646C13.3073 27.9861 13.4288 28.0035 13.5156 27.9167ZM12.7865 26.849C12.6997 26.7274 12.5955 26.6927 12.474 26.7448C12.3698 26.8142 12.3698 26.9184 12.474 27.0573C12.5955 27.1962 12.6997 27.2396 12.7865 27.1875C12.8906 27.1181 12.8906 27.0052 12.7865 26.849ZM11.7187 25.8073C11.7535 25.7378 11.7101 25.6684 11.5885 25.599C11.467 25.5642 11.3976 25.5816 11.3802 25.651C11.3281 25.7378 11.3628 25.8073 11.4844 25.8594C11.6233 25.8941 11.7014 25.8767 11.7187 25.8073ZM12.2656 26.4062C12.3003 26.3889 12.3134 26.3498 12.3047 26.2891C12.296 26.2283 12.2656 26.1806 12.2135 26.1458C12.1094 26.0243 12.0226 25.9983 11.9531 26.0677C11.8837 26.1372 11.8924 26.2326 11.9792 26.3542C12.0833 26.4583 12.1788 26.4757 12.2656 26.4062ZM14.5052 28.3594C14.5399 28.2378 14.4618 28.1424 14.2708 28.0729C14.1146 28.0208 14.0017 28.0556 13.9323 28.1771C13.8976 28.2986 13.9757 28.3941 14.1667 28.4635C14.3229 28.5156 14.4358 28.4809 14.5052 28.3594ZM15.599 28.4375C15.599 28.2986 15.4948 28.2292 15.2865 28.2292C15.1128 28.2292 15.026 28.2986 15.026 28.4375C15.026 28.5764 15.1215 28.6458 15.3125 28.6458C15.5035 28.6458 15.599 28.5764 15.599 28.4375ZM16.6146 28.2552C16.5799 28.1337 16.467 28.0903 16.276 28.125C16.0851 28.1597 16.0069 28.2378 16.0417 28.3594C16.0764 28.4983 16.1806 28.5503 16.3542 28.5156C16.5278 28.4809 16.6146 28.3941 16.6146 28.2552ZM33.3333 20C33.3333 16.3194 32.0312 13.1771 29.4271 10.5729C26.8229 7.96875 23.6806 6.66667 20 6.66667C16.3194 6.66667 13.1771 7.96875 10.5729 10.5729C7.96875 13.1771 6.66667 16.3194 6.66667 20C6.66667 22.8993 7.51736 25.5078 9.21875 27.8255C10.9201 30.1432 13.1076 31.7535 15.7812 32.6562C16.0937 32.7083 16.3238 32.6649 16.4714 32.526C16.6189 32.3872 16.6927 32.2135 16.6927 32.0052C16.6927 31.1024 16.684 30.2778 16.6667 29.5312C16.5625 29.5486 16.428 29.5703 16.263 29.5964C16.0981 29.6224 15.7899 29.6398 15.3385 29.6484C14.8872 29.6571 14.4705 29.6224 14.0885 29.5443C13.7066 29.4661 13.329 29.2925 12.9557 29.0234C12.5825 28.7543 12.3264 28.3941 12.1875 27.9427C11.7882 26.9184 11.2934 26.276 10.7031 26.0156C10.6684 25.9983 10.6293 25.9679 10.5859 25.9245L10.3776 25.7161L10.1953 25.4687L10.2995 25.2734L10.8073 25.1823C10.9115 25.1823 11.0417 25.1997 11.1979 25.2344C11.3542 25.2691 11.6146 25.4036 11.9792 25.638C12.3437 25.8724 12.6302 26.1806 12.8385 26.5625C13.1163 27.0486 13.4418 27.4132 13.8151 27.6562C14.1884 27.8993 14.566 28.0208 14.9479 28.0208C15.3299 28.0208 15.6597 27.9905 15.9375 27.9297C16.2153 27.8689 16.4757 27.7865 16.7187 27.6823C16.8403 26.8663 17.1267 26.2674 17.5781 25.8854C16.7274 25.7812 15.9809 25.6207 15.3385 25.4036C14.6962 25.1866 14.0625 24.8481 13.4375 24.388C12.8125 23.928 12.3307 23.2682 11.9922 22.4089C11.6536 21.5495 11.4844 20.5122 11.4844 19.2969C11.4844 17.9253 11.9444 16.7361 12.8646 15.7292C12.4479 14.6528 12.4913 13.4722 12.9948 12.1875C13.3247 12.0833 13.7977 12.1484 14.4141 12.3828C15.0304 12.6172 15.5556 12.8733 15.9896 13.151L16.6667 13.5677C17.6736 13.2726 18.7847 13.125 20 13.125C21.2153 13.125 22.3264 13.2726 23.3333 13.5677C23.5243 13.4462 23.7717 13.2899 24.0755 13.099C24.3793 12.908 24.8611 12.6823 25.5208 12.4219C26.1806 12.1615 26.6753 12.0833 27.0052 12.1875C27.5087 13.4722 27.5521 14.6528 27.1354 15.7292C28.0556 16.7361 28.5156 17.9253 28.5156 19.2969C28.5156 20.2865 28.3941 21.1589 28.151 21.9141C27.908 22.6693 27.5998 23.2769 27.2266 23.737C26.8533 24.197 26.3889 24.5833 25.8333 24.8958C25.2778 25.2083 24.7352 25.434 24.2057 25.5729C23.6762 25.7118 23.0816 25.816 22.4219 25.8854C23.0295 26.4236 23.3333 27.2483 23.3333 28.3594C23.3333 29.0538 23.329 29.8264 23.3203 30.6771C23.3116 31.5278 23.3073 31.9705 23.3073 32.0052C23.3073 32.2135 23.3811 32.3872 23.5286 32.526C23.6762 32.6649 23.9062 32.7083 24.2187 32.6562C26.8924 31.7535 29.0799 30.1432 30.7812 27.8255C32.4826 25.5078 33.3333 22.8993 33.3333 20ZM40 7.5V32.5C40 34.566 39.2665 36.3325 37.7995 37.7995C36.3325 39.2665 34.566 40 32.5 40H7.5C5.43403 40 3.66753 39.2665 2.20052 37.7995C0.733507 36.3325 0 34.566 0 32.5V7.5C0 5.43403 0.733507 3.66753 2.20052 2.20052C3.66753 0.733507 5.43403 0 7.5 0H32.5C34.566 0 36.3325 0.733507 37.7995 2.20052C39.2665 3.66753 40 5.43403 40 7.5Z" fill="#F2F2F2"/>
</svg>
