<svg width="40" height="40" viewBox="0 0 40 40" fill="none" xmlns="http://www.w3.org/2000/svg">
<path d="M7.84259 0.0100098C3.53391 0.0100098 0.00750732 3.53633 0.00750732 7.84509V32.1587C0.00750732 36.4674 3.53383 39.9925 7.84259 39.9925H32.1562C36.465 39.9925 39.99 36.4675 39.99 32.1587V7.84509C39.99 3.53641 36.465 0.0100098 32.1562 0.0100098H7.84259ZM9.81323 6.60793C11.8791 6.60793 13.1517 7.96417 13.1909 9.74693C13.1909 11.4903 11.8791 12.8847 9.77327 12.8847H9.73451C7.70791 12.8847 6.39803 11.4904 6.39803 9.74693C6.39803 7.96421 7.74755 6.60793 9.81319 6.60793H9.81323ZM27.6164 14.9403C31.5896 14.9403 34.568 17.5372 34.568 23.1178V33.5357H28.5299V23.8163C28.5299 21.3739 27.656 19.7075 25.4709 19.7075C23.8027 19.7075 22.8084 20.8307 22.3718 21.9156C22.2123 22.3038 22.1731 22.8459 22.1731 23.3889V33.5357H16.135C16.135 33.5357 16.2143 17.0712 16.135 15.3664H22.1744V17.9394C22.9768 16.7014 24.4121 14.9403 27.6164 14.9403V14.9403ZM6.75419 15.3677H12.7923V33.5358H6.75419V15.3677V15.3677Z" fill="#F2F2F2"/>
</svg>
