<svg width="105" height="71" viewBox="0 0 105 71" fill="none" xmlns="http://www.w3.org/2000/svg">
<path d="M5.175 26.205C4.785 26.055 4.545 25.905 4.455 25.755C4.335 25.605 4.275 25.41 4.275 25.17C4.275 24.9 4.365 24.705 4.545 24.585C7.575 24.585 9.24 24.57 9.54 24.54C9.69 21.27 10.335 18.825 11.475 17.205C12.615 15.585 14.34 14.775 16.65 14.775C18.12 14.775 19.275 15.21 20.115 16.08C20.985 16.95 21.42 18.06 21.42 19.41C21.42 21.33 20.775 22.815 19.485 23.865C18.195 24.915 16.215 25.635 13.545 26.025V40.11C13.545 42.15 13.32 43.98 12.87 45.6C12.99 45.72 13.245 45.96 13.635 46.32C14.055 46.65 14.34 46.89 14.49 47.04C14.64 47.16 14.91 47.385 15.3 47.715C15.69 48.045 15.975 48.285 16.155 48.435C16.365 48.555 16.665 48.75 17.055 49.02C17.445 49.26 17.775 49.44 18.045 49.56C18.315 49.68 18.645 49.83 19.035 50.01C19.455 50.16 19.845 50.28 20.205 50.37C21.135 50.55 21.99 50.64 22.77 50.64C25.74 50.64 27.975 49.95 29.475 48.57C31.005 47.16 31.77 45.135 31.77 42.495C31.8 42.315 31.95 42.225 32.22 42.225C32.52 42.225 32.745 42.27 32.895 42.36C33.345 42.69 33.57 43.425 33.57 44.565C33.57 47.055 32.505 49.125 30.375 50.775C28.245 52.395 25.695 53.205 22.725 53.205C20.475 53.205 18.51 52.755 16.83 51.855C15.15 50.955 13.5 49.725 11.88 48.165C10.53 50.745 8.58 52.035 6.03 52.035C4.35 52.035 3.075 51.6 2.205 50.73C1.305 49.83 0.855 48.66 0.855 47.22C0.855 45.78 1.32 44.595 2.25 43.665C3.18 42.735 4.335 42.27 5.715 42.27C7.095 42.27 8.325 42.54 9.405 43.08C9.465 41.82 9.495 40.77 9.495 39.93V26.385C8.895 26.415 8.115 26.43 7.155 26.43C6.195 26.43 5.535 26.355 5.175 26.205ZM19.35 19.275C19.35 18.555 19.08 17.94 18.54 17.43C18.03 16.92 17.34 16.665 16.47 16.665C15.63 16.665 14.955 17.22 14.445 18.33C13.935 19.41 13.635 21.345 13.545 24.135C17.415 23.415 19.35 21.795 19.35 19.275ZM2.88 47.175C2.88 49.155 3.93 50.145 6.03 50.145C7.71 50.145 8.76 48.63 9.18 45.6C7.98 44.61 6.9 44.115 5.94 44.115C4.98 44.115 4.23 44.385 3.69 44.925C3.15 45.465 2.88 46.215 2.88 47.175ZM31.815 26.25C31.305 25.74 31.05 25.11 31.05 24.36C31.05 23.61 31.305 22.98 31.815 22.47C32.325 21.93 32.955 21.66 33.705 21.66C34.455 21.66 35.085 21.93 35.595 22.47C36.135 22.98 36.405 23.61 36.405 24.36C36.405 25.11 36.135 25.74 35.595 26.25C35.085 26.76 34.455 27.015 33.705 27.015C32.955 27.015 32.325 26.76 31.815 26.25ZM31.635 33.405C31.635 32.505 31.86 31.83 32.31 31.38C32.76 30.9 33.33 30.66 34.02 30.66C34.71 30.66 35.265 30.87 35.685 31.29V44.205C35.685 45.915 36.015 47.205 36.675 48.075C37.335 48.945 38.235 49.38 39.375 49.38C40.515 49.38 41.58 48.69 42.57 47.31C43.56 45.93 44.055 43.695 44.055 40.605C44.115 40.425 44.34 40.335 44.73 40.335C45.27 40.335 45.54 41.13 45.54 42.72C45.54 45.03 44.91 47.01 43.65 48.66C42.39 50.31 40.785 51.135 38.835 51.135C36.405 51.135 34.59 50.415 33.39 48.975C32.22 47.535 31.635 45.495 31.635 42.855V33.405ZM57.5663 31.965C57.9563 31.095 58.5713 30.66 59.4113 30.66C60.2813 30.66 60.9263 30.87 61.3463 31.29V54.15C61.7063 54.12 62.2763 54.105 63.0563 54.105C63.8363 54.105 64.2263 54.435 64.2263 55.095L63.9563 55.77C62.8163 55.77 61.9463 55.785 61.3463 55.815V58.155C61.3163 61.245 60.5963 63.66 59.1863 65.4C57.8063 67.17 55.9613 68.055 53.6513 68.055C52.2713 68.055 51.0413 67.635 49.9613 66.795C48.9113 65.985 48.3863 64.695 48.3863 62.925C48.3863 60.645 49.1963 58.83 50.8163 57.48C52.4363 56.13 54.5963 55.185 57.2963 54.645V48.03C56.0363 50.1 54.2963 51.135 52.0763 51.135C46.8263 51.135 44.2013 47.7 44.2013 40.83C44.2013 37.35 45.0113 34.785 46.6313 33.135C48.2813 31.485 50.4563 30.66 53.1563 30.66C55.2263 30.66 56.6963 31.095 57.5663 31.965ZM57.2963 41.595V38.4C57.2963 36.27 56.9363 34.74 56.2163 33.81C55.4963 32.88 54.6563 32.415 53.6963 32.415C52.7663 32.415 52.0313 32.505 51.4913 32.685C50.9513 32.865 50.4263 33.24 49.9163 33.81C48.9563 34.89 48.4763 37.23 48.4763 40.83C48.4763 43.2 48.6863 45.045 49.1063 46.365C49.5263 47.685 50.0063 48.525 50.5463 48.885C51.0863 49.215 51.8363 49.38 52.7963 49.38C53.7863 49.38 54.7763 48.765 55.7663 47.535C56.7863 46.275 57.2963 44.295 57.2963 41.595ZM57.2963 58.065V56.355C52.8863 57.345 50.6813 59.58 50.6813 63.06C50.6813 64.11 50.9663 64.905 51.5363 65.445C52.1063 66.015 52.7813 66.3 53.5613 66.3C54.8213 66.3 55.7513 65.715 56.3513 64.545C56.9813 63.375 57.2963 61.215 57.2963 58.065ZM89.9916 40.335C90.5316 40.335 90.8016 41.13 90.8016 42.72C90.8016 45.03 90.2016 47.01 89.0016 48.66C87.8316 50.31 86.3016 51.135 84.4116 51.135C82.5216 51.135 80.9466 50.475 79.6866 49.155C78.4566 47.805 77.8416 46.08 77.8416 43.98V37.59C77.8416 34.02 76.9416 32.235 75.1416 32.235C73.5516 32.235 72.2466 33.045 71.2266 34.665C70.2066 36.285 69.6966 39 69.6966 42.81V50.505C69.3966 50.925 68.8716 51.135 68.1216 51.135C67.3716 51.135 66.7716 50.91 66.3216 50.46C65.8716 49.98 65.6466 49.29 65.6466 48.39V25.845C65.6466 21.945 66.0216 19.125 66.7716 17.385C67.5216 15.615 68.9616 14.73 71.0916 14.73C72.2316 14.73 73.1166 15.21 73.7466 16.17C74.3766 17.13 74.6916 18.495 74.6916 20.265C74.6916 23.475 73.0266 26.745 69.6966 30.075V34.035C70.9566 31.785 72.9516 30.66 75.6816 30.66C77.6316 30.66 79.1766 31.275 80.3166 32.505C81.4866 33.735 82.0716 35.505 82.0716 37.815V44.205C82.0716 45.915 82.3416 47.205 82.8816 48.075C83.4216 48.945 84.2166 49.38 85.2666 49.38C86.3166 49.38 87.2466 48.675 88.0566 47.265C88.8966 45.825 89.3166 43.605 89.3166 40.605C89.3466 40.425 89.5716 40.335 89.9916 40.335ZM69.6966 27.915C71.7366 25.275 72.7566 22.71 72.7566 20.22C72.7566 17.73 72.2166 16.485 71.1366 16.485C70.5366 16.485 70.1466 17.175 69.9666 18.555C69.7866 19.935 69.6966 23.055 69.6966 27.915ZM89.376 26.745C89.376 25.845 89.601 25.17 90.051 24.72C90.501 24.24 91.071 24 91.761 24C92.451 24 93.006 24.21 93.426 24.63V31.29H99.591C100.221 31.29 100.626 31.41 100.806 31.65C101.016 31.89 101.121 32.295 101.121 32.865H93.426V44.205C93.426 45.855 93.891 47.13 94.821 48.03C95.781 48.93 96.876 49.38 98.106 49.38C99.966 49.38 101.331 48.69 102.201 47.31C103.071 45.93 103.506 43.695 103.506 40.605C103.566 40.425 103.791 40.335 104.181 40.335C104.721 40.335 104.991 41.13 104.991 42.72C104.991 45.15 104.376 47.16 103.146 48.75C101.946 50.34 100.086 51.135 97.566 51.135C95.046 51.135 93.051 50.475 91.581 49.155C90.111 47.835 89.376 45.87 89.376 43.26V26.745Z" fill="#3D3D3D"/>
<path fill-rule="evenodd" clip-rule="evenodd" d="M54.6388 68H52.7924C51.7563 67.8593 50.8132 67.4583 49.963 66.7971C48.913 65.987 48.388 64.697 48.388 62.927C48.388 60.647 49.198 58.8321 50.818 57.482C51.8219 56.6454 53.0333 55.9643 54.4521 55.4387L55.2486 56.9666C52.2048 58.1391 50.683 60.1709 50.683 63.062C50.683 64.112 50.968 64.907 51.538 65.447C52.108 66.017 52.783 66.302 53.563 66.302C54.823 66.302 55.753 65.717 56.353 64.5471C56.7867 63.7414 57.0712 62.4665 57.2063 60.7222L59.4602 65.0459C59.3725 65.1676 59.2817 65.2863 59.188 65.4021C58.0102 66.9126 56.4939 67.7786 54.6388 68ZM17.159 49.0845L15.9888 51.3763C16.2689 51.5458 16.5499 51.7061 16.8317 51.857C18.5117 52.757 20.4767 53.207 22.7267 53.207C25.6967 53.207 28.2467 52.397 30.3767 50.777C31.4279 49.9627 32.2198 49.0461 32.7522 48.0271C32.9413 48.3684 33.1545 48.6851 33.3917 48.977C34.5917 50.417 36.4067 51.137 38.8367 51.137C40.7867 51.137 42.3917 50.312 43.6517 48.662C44.2159 47.9232 44.6538 47.1182 44.9653 46.2471C46.0906 49.5071 48.4615 51.137 52.078 51.137C52.1219 51.137 52.1656 51.1366 52.2091 51.1358L51.1847 49.1706C50.9472 49.0959 50.735 49.0014 50.548 48.887C50.008 48.527 49.528 47.687 49.108 46.367C48.9271 45.7987 48.7852 45.133 48.6822 44.37L44.6894 36.7104C44.393 37.7988 44.232 39.0404 44.2065 40.435C44.1305 40.4781 44.0806 40.5355 44.0567 40.607C44.0567 43.697 43.5617 45.932 42.5717 47.312C41.5817 48.692 40.5167 49.382 39.3767 49.382C38.2367 49.382 37.3367 48.947 36.6767 48.077C36.0167 47.207 35.6867 45.917 35.6867 44.207V31.292C35.2667 30.872 34.7117 30.662 34.0217 30.662C33.3317 30.662 32.7617 30.902 32.3117 31.382C31.8617 31.832 31.6367 32.507 31.6367 33.407V42.857C31.6367 43.2603 31.6504 43.6495 31.6777 44.0248C31.4306 45.9317 30.697 47.4475 29.4767 48.572C27.9767 49.952 25.7417 50.642 22.7717 50.642C21.9917 50.642 21.1367 50.552 20.2067 50.372C19.8467 50.282 19.4567 50.162 19.0367 50.012C18.6467 49.832 18.3167 49.682 18.0467 49.562C17.8006 49.4527 17.5048 49.2935 17.159 49.0845ZM31.0517 24.362C31.0517 25.112 31.3067 25.742 31.8167 26.252C32.3267 26.762 32.9567 27.017 33.7067 27.017C34.4567 27.017 35.0867 26.762 35.5967 26.252C36.1367 25.742 36.4067 25.112 36.4067 24.362C36.4067 23.612 36.1367 22.982 35.5967 22.472C35.0867 21.932 34.4567 21.662 33.7067 21.662C32.9567 21.662 32.3267 21.932 31.8167 22.472C31.3067 22.982 31.0517 23.612 31.0517 24.362Z" fill="url(#paint0_linear_39_855)"/>
<defs>
<linearGradient id="paint0_linear_39_855" x1="31.6977" y1="24.6071" x2="31.6977" y2="64.3805" gradientUnits="userSpaceOnUse">
<stop stop-color="white"/>
<stop offset="1" stop-color="white" stop-opacity="0"/>
</linearGradient>
</defs>
</svg>
